<?xml version="1.0" encoding="utf-8"?>
<!-- Generator: Adobe Illustrator 24.0.3, SVG Export Plug-In . SVG Version: 6.00 Build 0)  -->
<svg version="1.1" id="Layer_1" xmlns="http://www.w3.org/2000/svg" xmlns:xlink="http://www.w3.org/1999/xlink" x="0px" y="0px"
	 viewBox="0 0 1764 322.5" style="enable-background:new 0 0 1764 322.5;" xml:space="preserve">
<style type="text/css">
	.st0{fill-rule:evenodd;clip-rule:evenodd;fill:#24272A;}
	.st1{fill:#FFFFFF;}
	.st2{fill-rule:evenodd;clip-rule:evenodd;fill:#FFFFFF;}
</style>
<rect y="0" class="st0" width="1764" height="322.5"/>
<path class="st1" d="M1573.57,132.9c0.17,11.55,10.78,35.18,10.78,35.18l-21.86-31.48c-0.03,0.01-0.06,0.02-0.09,0.03l-70.08-107.66
	c0,0-49.72,76.68,33.14,128.9c-38.1,27.24-49.25,57.89-49.25,57.89s177.34-88.37,188.29-56.93
	C1674.35,136.23,1656.74,118.01,1573.57,132.9z M1634.64,133.88c13.94-1.32,19.41,3.77,19.41,3.77
	C1650.66,148.01,1634.64,133.88,1634.64,133.88z"/>
<path class="st1" d="M1639.42,51.33l-17.53,69.15c-13.73-1.68-30.1,0.58-47.87,3.81C1581.71,76.51,1639.42,51.33,1639.42,51.33z"/>
<path class="st1" d="M1310.48,189.02h-25.05l-7.55-17.77h-35.71l8.72-20.44h18.25l-5.52-13.04l-11.51-27.25l-0.74-1.77l-29.21,68.55
	l-5.02,11.73h-24.89l46.53-103.68h25.18l11.3,25.15l18.08,40.32l9.17,20.44L1310.48,189.02z M1344.41,189.03V85.32h-22.96v103.71
	H1344.41z M1439.53,173.21l-16.81-20.33c8.62-3.08,14.26-7.09,17.87-11.75c4.73-6.07,6.07-13.21,6.13-20.85
	c0-16.31-10.7-31.43-30.9-34.39c-2.34-0.36-4.85-0.55-7.45-0.55h-49.2v103.68h23.12v-83.84h26.08c10.79,0,15.41,8.57,15.55,15.69
	c0,5.42-3.17,11.87-10.39,13.86c-0.31,0.12-0.62,0.19-0.96,0.26c-1.2,0.26-2.51,0.41-3.92,0.41H1400l-8.34,19.56h7.36l0.38,0.48
	l26.13,33.58h25.63v-1.77L1439.53,173.21z"/>
<path class="st1" d="M1084.87,85.47v64.89h11.85v20h-11.85v18.82h-22.67v-18.82h-55.26l-1.93-23.7l56.89-61.19H1084.87z
	 M1062.21,150.36v-36.89l-33.48,36.89H1062.21z M1185.75,106.21h-54.52v16h18.22c22.22,0,42.22,6.96,42.07,33.78
	c0,25.48-22.52,34.37-41.48,34.37c-24,0-42.22-8.74-42.37-33.33h22.82c0,9.33,10.67,12.89,19.26,12.89
	c5.63,0,18.96-2.07,18.96-13.92c0.15-11.56-12.3-13.93-19.26-13.93h-39.7c0-19.41,0-37.04,0-56.59h76V106.21z"/>
<g>
	<path class="st2" d="M372.91,99.99c1.21-0.56,2.29-1.24,3.21-2.04l1.67-1.78l1.32-2.2l0.8-2.47l0.02-0.07l0.27-2.66v-0.05v-0.28
		l0-0.11l-0.27-2.85l-0.01-0.07l-0.8-2.52l-0.02-0.05l-1.27-2.1l-0.11-0.14l-1.67-1.67l-0.14-0.11l-2.08-1.29l-0.25-0.12l-2.35-0.88
		c-0.14-0.04-0.28-0.08-0.42-0.12l-2.56-0.5c-0.22-0.03-0.44-0.06-0.66-0.08l-2.6-0.15l-0.49,0h-12.91v25.95h13.05
		C367.84,101.61,370.6,101.07,372.91,99.99z"/>
	<polygon class="st2" points="184.63,111.73 184.64,111.71 184.64,83.39 184.03,84.13 161.07,111.73 161.74,111.73 	"/>
	<path class="st2" d="M474.72,96.89l0.11-0.1l1.66-1.68l1.21-1.99l0.74-2.26l0.01-0.05l0.24-2.44l0-0.06l0-0.28l0-0.12l-0.24-2.45
		c-0.03-0.14-0.05-0.27-0.08-0.4L477.72,83c-0.04-0.1-0.09-0.2-0.14-0.3l-1.07-1.73c-0.07-0.1-0.15-0.2-0.23-0.29l-1.45-1.41
		c-0.09-0.07-0.18-0.14-0.27-0.21l-1.77-1.08c-0.16-0.08-0.32-0.15-0.49-0.23l-1.85-0.68c-0.28-0.08-0.56-0.16-0.85-0.23l-1.94-0.37
		c-0.33-0.05-0.66-0.09-1.01-0.12l-2.17-0.12l-0.52,0h-17.96v23.71h18.1C468.66,99.9,472.18,98.9,474.72,96.89z"/>
	<polygon class="st2" points="598.65,75.79 598.65,75.8 598.66,75.79 	"/>
	<polygon class="st2" points="598.63,75.82 546.6,75.82 546.6,90.83 582.61,90.83 	"/>
	<path class="st2" d="M731.55,85.59c1.24,0.73,2.99,1.4,5.24,2.08c2.22,0.68,5.05,1.4,8.46,2.18c3.45,0.73,6.68,1.55,9.69,2.45
		l10.5-8.91c-2.99-2.15-6.05-3.95-9.18-5.37c-3.11-1.43-6.22-2.5-9.31-3.23c-3.09-0.72-6.08-1.08-9-1.08
		c-0.29,0-0.57,0.01-0.84,0.02l-0.54,0.03c-0.54,0.03-1.04,0.09-1.53,0.15l-1.03,0.18c-0.21,0.04-0.41,0.09-0.61,0.14l-1.37,0.46
		l-0.14,0.06l-1.3,0.71l-0.03,0.02l-0.95,0.82c-0.99,1.03-1.49,2.26-1.49,3.72v0.28c-0.02,1.1,0.23,2.1,0.75,2.95
		C729.4,84.12,730.29,84.89,731.55,85.59z"/>
	<path class="st2" d="M641.48,85.59c1.24,0.73,2.99,1.4,5.24,2.08c2.22,0.68,5.05,1.4,8.46,2.18c3.6,0.76,6.95,1.62,10.08,2.56
		l10.12-9.02c-2.99-2.15-6.05-3.95-9.18-5.37c-3.11-1.43-6.22-2.5-9.31-3.23c-3.09-0.72-6.08-1.08-9-1.08
		c-0.29,0-0.57,0.01-0.85,0.02l-0.53,0.03c-0.54,0.03-1.05,0.09-1.54,0.16l-1.01,0.18c-0.21,0.05-0.42,0.09-0.63,0.15l-1.35,0.45
		l-0.16,0.07l-1.29,0.71l-0.04,0.03l0,0l-0.93,0.8c-0.99,1.03-1.49,2.26-1.49,3.73v0.28c-0.02,1.1,0.23,2.1,0.75,2.95
		C639.33,84.12,640.22,84.89,641.48,85.59z"/>
	<polygon class="st2" points="710.82,59.97 710.65,60.13 710.77,60.02 	"/>
	<polygon class="st2" points="620.75,59.97 620.68,60.04 620.69,60.03 	"/>
	<path class="st2" d="M758.3,150.52c-4.86,1.43-10.28,2.17-16.26,2.17h0h-0.01c-5.82,0-11.46-0.61-16.95-1.82
		c-0.45-0.1-0.9-0.21-1.35-0.32c-0.3-0.07-0.61-0.15-0.91-0.22c-0.36-0.09-0.72-0.19-1.09-0.29c-0.3-0.08-0.6-0.16-0.89-0.24
		c-0.36-0.1-0.72-0.21-1.08-0.32c-0.29-0.09-0.58-0.18-0.87-0.27c-0.36-0.11-0.72-0.24-1.07-0.35c-0.28-0.1-0.57-0.19-0.85-0.29
		c-0.36-0.13-0.72-0.26-1.07-0.39c-0.28-0.1-0.55-0.2-0.83-0.31c-0.37-0.14-0.73-0.29-1.09-0.44c-0.26-0.1-0.52-0.21-0.78-0.32
		c-0.39-0.16-0.79-0.34-1.18-0.51c-0.22-0.1-0.45-0.19-0.67-0.29c-0.61-0.28-1.22-0.56-1.82-0.86c-4.91-2.41-9.4-5.42-13.49-9.03
		l8.25-9.85l0,0l6.9-8.25c0.3,0.24,0.61,0.47,0.91,0.7c0.09,0.07,0.18,0.13,0.27,0.2c0.21,0.16,0.43,0.32,0.64,0.48
		c0.12,0.09,0.25,0.18,0.37,0.26c0.18,0.13,0.36,0.26,0.55,0.39c0.14,0.1,0.28,0.2,0.42,0.29c0.17,0.11,0.33,0.23,0.5,0.34
		c0.15,0.1,0.31,0.21,0.46,0.31c0.15,0.1,0.31,0.21,0.46,0.31c0.16,0.1,0.32,0.21,0.48,0.31c0.15,0.1,0.3,0.19,0.45,0.29
		c0.16,0.1,0.32,0.2,0.48,0.3c0.15,0.09,0.3,0.19,0.46,0.28c0.16,0.09,0.31,0.19,0.47,0.28c0.12,0.07,0.23,0.14,0.35,0.21l0,0
		c2.64,1.53,5.33,2.82,8.08,3.85c5.33,1.99,10.83,2.99,16.51,2.99c3.72-0.02,6.55-0.61,8.47-1.78c0.1-0.06,0.2-0.13,0.3-0.2
		l0.97-0.81l0.91-1.15l0.54-1.33l0.17-1.38v-0.09v-0.28l0-0.13l-0.15-1.31l-0.04-0.13l-0.48-1.16l-0.04-0.07l-0.08-0.13l-0.81-0.96
		c-0.11-0.1-0.22-0.21-0.34-0.31l-1.1-0.79l-0.26-0.16c-0.1-0.06-0.2-0.12-0.31-0.18l-1.5-0.73c-0.35-0.15-0.73-0.31-1.12-0.46
		l-1.03-0.38c-0.36-0.13-0.74-0.25-1.14-0.38c-2.2-0.72-4.96-1.47-8.3-2.27c-2.25-0.5-4.42-1.03-6.52-1.58
		c-0.5-0.13-0.99-0.26-1.47-0.4c-0.24-0.07-0.48-0.13-0.72-0.2c-0.44-0.12-0.88-0.25-1.32-0.38c-0.24-0.07-0.48-0.14-0.72-0.21
		c-0.46-0.14-0.91-0.27-1.35-0.41c-0.2-0.06-0.41-0.13-0.61-0.19c-0.64-0.2-1.28-0.41-1.91-0.62c-4.47-1.5-8.39-3.37-11.74-5.63
		c-0.29-0.19-0.56-0.39-0.84-0.58c-0.07-0.05-0.13-0.1-0.2-0.15c-0.27-0.2-0.53-0.4-0.79-0.61c-0.02-0.02-0.05-0.04-0.07-0.06
		c-0.24-0.19-0.47-0.39-0.7-0.58c-0.06-0.05-0.13-0.11-0.19-0.17c-0.24-0.21-0.48-0.43-0.71-0.65c-0.04-0.03-0.07-0.07-0.1-0.1
		c-0.2-0.2-0.4-0.4-0.6-0.61c-0.06-0.06-0.11-0.12-0.17-0.17c-0.22-0.23-0.43-0.47-0.64-0.71c-0.04-0.04-0.08-0.09-0.11-0.13
		c-0.18-0.21-0.36-0.43-0.53-0.65c-0.04-0.06-0.09-0.11-0.14-0.17c-0.2-0.25-0.38-0.51-0.57-0.77c-0.54-0.75-1.03-1.54-1.48-2.37
		c-1.87-3.44-2.83-7.62-2.85-12.6v-0.28c0.02-4.58,0.89-8.79,2.62-12.6c0.43-0.93,0.9-1.83,1.41-2.7l0.05-0.1l0.06-0.09
		c0.5-0.82,1.04-1.62,1.62-2.39l0.07-0.1l0.08-0.09c0.57-0.74,1.17-1.45,1.81-2.14l0.14-0.17l0.16-0.15
		c0.48-0.5,0.99-0.99,1.52-1.47l-38.43,34.09c3.89,1.53,7.24,3.36,10.09,5.46c3.18,2.34,5.59,5.17,7.27,8.51
		c0.36,0.72,0.68,1.46,0.97,2.23c0.1,0.28,0.2,0.56,0.29,0.85c0.02,0.05,0.03,0.1,0.05,0.15c0.1,0.32,0.19,0.64,0.28,0.97
		c0.02,0.08,0.04,0.16,0.06,0.24c0.09,0.33,0.17,0.67,0.24,1.01c0.01,0.03,0.01,0.05,0.02,0.08c0.07,0.32,0.13,0.65,0.19,0.99
		c0.01,0.08,0.03,0.17,0.04,0.25c0.06,0.35,0.11,0.7,0.15,1.05c0.01,0.07,0.02,0.15,0.03,0.23c0.04,0.32,0.07,0.64,0.1,0.97
		c0.01,0.07,0.01,0.14,0.02,0.21c0.03,0.37,0.05,0.75,0.07,1.13c0,0.09,0.01,0.18,0.01,0.27c0.02,0.39,0.03,0.79,0.03,1.2v0.28
		c0,0.35-0.01,0.69-0.02,1.04c-0.14,4.61-1.07,8.75-2.83,12.43c-1.87,3.95-4.56,7.29-8.04,10.05c-0.27,0.21-0.55,0.41-0.83,0.62
		c-0.21,0.15-0.41,0.31-0.62,0.45c-0.25,0.18-0.51,0.34-0.76,0.51c-0.21,0.14-0.42,0.28-0.64,0.42c-0.26,0.17-0.54,0.32-0.81,0.48
		c-0.22,0.13-0.43,0.26-0.65,0.38c-0.28,0.16-0.57,0.31-0.86,0.46c-0.22,0.12-0.44,0.24-0.66,0.35c-0.3,0.15-0.61,0.29-0.92,0.43
		c-0.22,0.1-0.44,0.21-0.67,0.31c-0.32,0.14-0.66,0.28-0.99,0.41c-0.22,0.09-0.43,0.19-0.65,0.27c-0.37,0.14-0.75,0.28-1.12,0.41
		c-0.2,0.07-0.39,0.15-0.58,0.21c-0.58,0.2-1.17,0.39-1.77,0.57c-0.56,0.17-1.13,0.32-1.71,0.47c-0.03,0.01-0.06,0.02-0.09,0.02
		c-0.56,0.14-1.12,0.27-1.69,0.39c-0.05,0.01-0.11,0.03-0.17,0.04c-0.56,0.12-1.12,0.23-1.69,0.33c-0.07,0.01-0.14,0.03-0.21,0.04
		c-0.57,0.1-1.14,0.19-1.72,0.27c-2.84,0.4-5.83,0.61-8.98,0.61h0h-0.01c-5.82,0-11.46-0.61-16.95-1.82
		c-5.47-1.21-10.66-3.02-15.57-5.42c-4.91-2.41-9.4-5.42-13.49-9.03l0.02-0.02l0,0L615,125.6l0,0l6.09-7.27
		c0.33,0.26,0.67,0.52,1,0.77c0.1,0.08,0.2,0.15,0.31,0.23c0.23,0.17,0.47,0.35,0.7,0.52c0.12,0.09,0.24,0.17,0.36,0.26
		c0.22,0.16,0.44,0.31,0.65,0.46c0.13,0.09,0.25,0.18,0.38,0.27c0.22,0.15,0.43,0.3,0.65,0.44c0.12,0.08,0.25,0.17,0.38,0.25
		c0.23,0.15,0.45,0.29,0.68,0.44c0.12,0.07,0.24,0.15,0.35,0.22c0.26,0.16,0.52,0.32,0.78,0.48c0.09,0.05,0.17,0.11,0.26,0.16
		c0.35,0.21,0.7,0.41,1.04,0.61c0.05,0.03,0.1,0.06,0.15,0.08c0.3,0.17,0.59,0.33,0.89,0.5c0.03,0.02,0.05,0.03,0.08,0.05v0
		c2.19,1.19,4.41,2.21,6.67,3.05c3.55,1.32,7.17,2.21,10.87,2.65v0c0.05,0.01,0.09,0.01,0.14,0.01c0.42,0.05,0.83,0.09,1.25,0.13
		h0.01c0.42,0.04,0.85,0.07,1.28,0.1c0.12,0.01,0.24,0.01,0.35,0.02c0.32,0.02,0.64,0.03,0.96,0.04c0.12,0,0.25,0.01,0.37,0.01
		c0.43,0.01,0.85,0.02,1.28,0.02c3.72-0.02,6.55-0.61,8.47-1.78c0.17-0.1,0.33-0.21,0.49-0.33c0.02-0.01,0.04-0.02,0.05-0.04
		l0.02-0.02c1.54-1.14,2.31-2.62,2.33-4.49l0-0.02v-0.07v-0.28v-0.11l0-0.02c0-0.46-0.05-0.9-0.15-1.32v-0.01l-0.01-0.02
		c0,0,0-0.01,0-0.01l-0.02-0.07l-0.01-0.02c-0.11-0.4-0.26-0.78-0.47-1.14l-0.01-0.02l-0.04-0.07l-0.07-0.12l-0.02-0.03
		c-0.21-0.31-0.47-0.62-0.77-0.92l-0.02-0.03c-0.02-0.02-0.05-0.04-0.07-0.06c-0.06-0.05-0.12-0.11-0.18-0.16
		c-0.03-0.03-0.06-0.05-0.09-0.08l-0.03-0.02c-0.31-0.26-0.66-0.51-1.06-0.76l-0.03-0.02l-0.25-0.15l-0.3-0.17l-0.05-0.02
		c-0.43-0.24-0.9-0.47-1.43-0.7l-0.04-0.02c-0.07-0.03-0.15-0.06-0.23-0.1c-0.07-0.03-0.14-0.06-0.22-0.09
		c-0.17-0.07-0.33-0.13-0.51-0.2c-0.03-0.01-0.06-0.03-0.1-0.04c-0.01,0-0.02-0.01-0.03-0.01l-0.1-0.04
		c-0.28-0.1-0.56-0.21-0.86-0.31l-0.13-0.05c-0.07-0.03-0.15-0.05-0.22-0.08c-0.06-0.02-0.11-0.04-0.17-0.06
		c-0.23-0.08-0.47-0.16-0.72-0.24c-0.25-0.08-0.5-0.16-0.76-0.24c-0.05-0.02-0.1-0.03-0.15-0.05c-0.26-0.08-0.52-0.16-0.79-0.24
		c-0.05-0.01-0.09-0.03-0.14-0.04c-0.57-0.17-1.17-0.34-1.8-0.51c-0.05-0.01-0.1-0.03-0.15-0.04c-0.27-0.07-0.55-0.15-0.83-0.22l0,0
		c-1.14-0.3-2.36-0.61-3.68-0.92c-1.86-0.41-3.66-0.84-5.42-1.29c-0.17-0.04-0.33-0.08-0.49-0.13c-0.52-0.14-1.04-0.27-1.55-0.41
		c-0.15-0.04-0.29-0.08-0.44-0.12c-0.4-0.11-0.8-0.22-1.2-0.34c-0.16-0.05-0.33-0.09-0.49-0.14c-0.51-0.15-1.01-0.3-1.51-0.45
		c-0.1-0.03-0.2-0.06-0.29-0.09c-0.43-0.13-0.85-0.26-1.27-0.4c-0.15-0.05-0.3-0.09-0.44-0.14c-0.5-0.16-1.01-0.33-1.5-0.49
		c-4.47-1.5-8.39-3.37-11.74-5.63c-0.26-0.17-0.51-0.35-0.76-0.53c-0.07-0.05-0.15-0.1-0.22-0.16c-0.19-0.14-0.38-0.29-0.57-0.43
		c-0.06-0.05-0.12-0.09-0.18-0.14c-0.24-0.19-0.47-0.38-0.7-0.57c-0.05-0.04-0.09-0.08-0.14-0.13c-0.18-0.16-0.36-0.32-0.54-0.48
		c-0.07-0.06-0.13-0.12-0.2-0.18c-0.19-0.18-0.37-0.36-0.55-0.54c-0.03-0.03-0.06-0.06-0.09-0.09c-0.21-0.21-0.41-0.43-0.61-0.65
		c-0.05-0.06-0.11-0.12-0.16-0.18c-0.15-0.17-0.3-0.35-0.45-0.52c-0.05-0.06-0.1-0.12-0.15-0.18c-0.19-0.23-0.37-0.46-0.55-0.7
		c-0.72-0.95-1.37-1.95-1.95-3c-1.87-3.44-2.83-7.62-2.85-12.6v-0.28c0.01-1.15,0.06-2.27,0.18-3.37l0-0.01l0-0.02
		c0.34-3.28,1.15-6.35,2.44-9.2c0.42-0.92,0.89-1.82,1.4-2.68l0.06-0.12l0.08-0.12c0.49-0.81,1.02-1.59,1.58-2.34l0.09-0.13
		l0.1-0.12c0.55-0.72,1.14-1.42,1.77-2.09l0.16-0.19l0.18-0.17l0.24-0.25l-31.13,29.08h6.01v21.44v0.01v0.01h-0.01h-28.33h-5.69
		H546.6v10.63v4.94H560h16.76h22.59v10.01v4.45v8.67V151v0.01h-0.01h-9.67h-4.91H571.6h-20.06h-31.88V151v-13.28v-14.8v-21.07V52.81
		h0.01v-0.02l-17.39,17.35c0.54,1.01,1.02,2.06,1.43,3.16c1.47,3.76,2.2,8.07,2.2,12.91v0.28c-0.02,5.05-0.86,9.52-2.53,13.44
		c-1.66,3.9-4,7.25-7.01,10.05c-0.26,0.24-0.52,0.47-0.79,0.7c-0.18,0.16-0.35,0.31-0.54,0.46c-0.21,0.17-0.42,0.34-0.63,0.51
		c-0.18,0.15-0.37,0.3-0.55,0.44c-0.22,0.17-0.45,0.33-0.67,0.49c-0.19,0.14-0.38,0.28-0.57,0.41c-0.23,0.16-0.47,0.32-0.71,0.48
		c-0.19,0.13-0.38,0.25-0.57,0.38c-0.25,0.16-0.51,0.31-0.76,0.46c-0.19,0.11-0.38,0.23-0.57,0.34c-0.27,0.16-0.56,0.31-0.84,0.46
		c-0.18,0.1-0.36,0.2-0.55,0.3c-0.32,0.17-0.64,0.32-0.97,0.48c-0.15,0.08-0.31,0.15-0.46,0.23c-0.49,0.23-0.98,0.45-1.48,0.66
		l22.04,32.2l0,0l1.38,2.01h0l0.01,0.01l0.01,0.01h-0.01h-3.53h-27.74l-0.88-1.32l-9.72-14.61l-0.1-0.15l0,0l-9.08-13.65h-0.01
		h-7.77h-4.28v4.28v7.69v17.75V151v0.01h-0.01h-17.88h-9.32V151v-2.49V123.4v-19.12V52.81h0.01v-0.02l-15.92,16.95
		c0.56,0.95,1.07,1.93,1.53,2.95c1.89,4.26,2.85,9.07,2.88,14.5l0,0.28c-0.02,5.82-1.08,10.94-3.16,15.36
		c-1.66,3.53-3.86,6.61-6.6,9.22c-0.31,0.3-0.63,0.59-0.96,0.87c-0.06,0.05-0.12,0.1-0.18,0.16c-0.34,0.29-0.69,0.58-1.05,0.86
		c-3.76,2.99-8.21,5.24-13.33,6.76c-0.32,0.09-0.65,0.19-0.97,0.27c-0.01,0-0.02,0.01-0.02,0.01c-0.32,0.09-0.64,0.17-0.96,0.25
		c-0.01,0-0.02,0-0.02,0.01c-0.32,0.08-0.64,0.16-0.97,0.23c-0.03,0.01-0.06,0.01-0.08,0.02c-0.31,0.07-0.61,0.14-0.92,0.2
		c-0.04,0.01-0.09,0.02-0.13,0.03c-0.29,0.06-0.59,0.12-0.88,0.18c-0.06,0.01-0.12,0.02-0.18,0.03c-0.28,0.05-0.56,0.1-0.84,0.15
		c-0.08,0.01-0.16,0.03-0.23,0.04c-0.27,0.04-0.53,0.09-0.8,0.13c-0.09,0.01-0.19,0.03-0.28,0.04c-0.25,0.04-0.51,0.08-0.77,0.11
		c-2.79,0.37-5.69,0.57-8.72,0.57h-12.54h-1.07v1.14v26.9V151v0.01h-0.01h-26.32h-0.88V151v-28.03v-17.4V52.81h0.01v-0.02L306,73.68
		v1.55v0.01v0.02h-0.01h-1.37H261.8l-0.84,14.87c2.2-1.08,4.56-1.92,7.06-2.55c2.5-0.63,5.4-0.94,8.65-0.96
		c4.47,0,8.7,0.61,12.72,1.87c0.95,0.29,1.87,0.62,2.77,0.99c2.91,1.19,5.57,2.77,7.99,4.72c3.13,2.55,5.61,5.8,7.41,9.7
		c1.82,3.93,2.74,8.54,2.78,13.87v0.28c-0.01,1.35-0.07,2.67-0.2,3.95c-0.01,0.07-0.01,0.13-0.02,0.2
		c-0.39,3.81-1.32,7.3-2.75,10.48c-1.59,3.47-3.7,6.54-6.36,9.17c-0.28,0.28-0.58,0.56-0.87,0.83c-0.07,0.06-0.13,0.12-0.2,0.18
		c-0.3,0.27-0.6,0.54-0.92,0.8c-0.22,0.19-0.45,0.37-0.68,0.56c-0.09,0.07-0.18,0.14-0.27,0.21c-0.14,0.11-0.28,0.22-0.43,0.33
		c-0.12,0.09-0.24,0.17-0.36,0.26c-0.12,0.09-0.24,0.18-0.36,0.26c-0.13,0.09-0.26,0.18-0.39,0.27c-0.11,0.08-0.22,0.16-0.34,0.23
		c-0.14,0.09-0.28,0.18-0.42,0.27c-0.11,0.07-0.22,0.14-0.33,0.21c-0.14,0.09-0.29,0.18-0.44,0.27c-0.11,0.07-0.21,0.13-0.32,0.2
		c-0.15,0.09-0.31,0.18-0.46,0.27c-0.1,0.06-0.21,0.12-0.31,0.19c-0.16,0.09-0.32,0.18-0.47,0.26c-0.11,0.06-0.21,0.12-0.32,0.18
		c-0.16,0.09-0.33,0.17-0.49,0.26c-0.1,0.05-0.21,0.11-0.31,0.16c-0.16,0.08-0.33,0.17-0.5,0.25c-0.11,0.05-0.21,0.11-0.32,0.16
		c-0.17,0.08-0.33,0.16-0.5,0.23c-0.11,0.05-0.22,0.1-0.34,0.16c-0.17,0.07-0.34,0.15-0.5,0.22c-0.12,0.05-0.23,0.1-0.35,0.15
		c-0.17,0.07-0.33,0.14-0.5,0.2c-0.12,0.05-0.25,0.1-0.37,0.15c-0.16,0.06-0.33,0.13-0.49,0.19c-0.13,0.05-0.26,0.1-0.39,0.15
		c-0.16,0.06-0.32,0.11-0.48,0.17c-0.14,0.05-0.28,0.1-0.42,0.15c-0.15,0.05-0.31,0.1-0.47,0.15c-0.17,0.06-0.34,0.12-0.52,0.17
		c-0.14,0.04-0.28,0.09-0.42,0.13c-1.01,0.31-2.05,0.6-3.1,0.85c-0.11,0.03-0.23,0.06-0.34,0.08c-1.24,0.28-2.52,0.52-3.82,0.72
		l-0.12,0.02l-0.13,0.01c-1.26,0.18-2.55,0.32-3.86,0.42l-0.21,0.02l-0.22,0.01c-1.35,0.09-2.74,0.14-4.15,0.15h-0.02h-0.04
		c-0.99-0.01-1.97-0.03-2.93-0.07l-0.24-0.01l-0.24-0.02c-0.9-0.04-1.79-0.1-2.66-0.18l-0.18-0.01l-0.15-0.02
		c-2.01-0.18-3.94-0.46-5.81-0.82c-0.53-0.1-1.06-0.21-1.59-0.33c-0.11-0.02-0.22-0.05-0.34-0.08c-0.54-0.12-1.07-0.26-1.6-0.39
		c-4.7-1.26-9.02-3.06-12.95-5.38c-0.47-0.28-0.94-0.56-1.41-0.86c-0.18-0.11-0.37-0.24-0.55-0.35c-0.28-0.18-0.56-0.36-0.84-0.54
		c-0.21-0.14-0.41-0.28-0.61-0.42c-0.25-0.17-0.51-0.34-0.76-0.52c-0.21-0.15-0.41-0.3-0.62-0.45c-0.24-0.18-0.49-0.35-0.73-0.53
		c-0.21-0.16-0.41-0.31-0.61-0.47c-0.24-0.18-0.48-0.37-0.71-0.55c-0.2-0.16-0.4-0.32-0.6-0.48c-0.24-0.19-0.48-0.39-0.71-0.58
		c-0.19-0.16-0.38-0.32-0.58-0.49c-0.24-0.2-0.47-0.41-0.71-0.61c-0.19-0.17-0.37-0.33-0.56-0.5c-0.33-0.3-0.67-0.6-1-0.91
		l0.01-0.01l0,0l15.56-18.22c0.27,0.23,0.54,0.46,0.81,0.69c0.02,0.02,0.04,0.04,0.07,0.05c0.42,0.35,0.84,0.69,1.25,1.03
		c0.05,0.04,0.11,0.08,0.16,0.13c0.37,0.29,0.74,0.58,1.11,0.86c0.08,0.06,0.17,0.12,0.25,0.19c0.12,0.09,0.24,0.18,0.36,0.27h0.01
		c2.56,1.88,5.13,3.43,7.69,4.64c3.9,1.85,7.95,2.78,12.13,2.81c3.02,0,5.57-0.49,7.69-1.43c1.33-0.58,2.45-1.31,3.39-2.18l1.07-1.2
		l0.64-1.06v0.16c0.99-1.66,1.51-3.58,1.52-5.77l0-0.01v-0.02l0-0.28l0-0.08l0-0.03c-0.01-0.81-0.1-1.58-0.25-2.31l0-0.03
		l-0.05-0.22l-0.02-0.05c-0.16-0.69-0.39-1.35-0.68-1.96l-0.02-0.05l-0.07-0.15l-0.02-0.03c-0.12-0.25-0.26-0.49-0.4-0.72v0.1
		l-0.67-1.03c-0.1-0.13-0.21-0.26-0.32-0.39l-1.31-1.25c-0.14-0.11-0.27-0.22-0.42-0.32l-1.67-1.03c-0.15-0.07-0.3-0.15-0.46-0.22
		l-0.42-0.16l0.02-0.02l-0.13-0.05c-0.41-0.17-0.84-0.32-1.27-0.46l-0.09-0.04c-0.06-0.02-0.13-0.04-0.2-0.06
		c-0.08-0.02-0.17-0.05-0.25-0.07c-0.07-0.02-0.14-0.04-0.22-0.06l-0.11-0.02c-0.6-0.15-1.21-0.28-1.86-0.38l-0.12-0.02
		c-0.08-0.01-0.15-0.02-0.23-0.03c-0.09-0.01-0.17-0.02-0.26-0.03c-0.09-0.01-0.18-0.03-0.27-0.04l-0.13-0.01
		c-0.64-0.07-1.3-0.11-1.98-0.12l-0.13-0.01l-0.44,0c-0.41,0-0.81,0.02-1.21,0.04c-0.13,0.01-0.26,0.02-0.38,0.02
		c-0.27,0.02-0.54,0.04-0.8,0.06c-0.15,0.01-0.3,0.03-0.45,0.05c-0.24,0.03-0.48,0.05-0.72,0.09c-0.15,0.02-0.31,0.04-0.46,0.07
		c-0.23,0.04-0.46,0.08-0.69,0.12c-0.09,0.02-0.18,0.03-0.27,0.05l-0.21,0.05c-0.14,0.03-0.29,0.06-0.43,0.09l-0.31,0.07
		c-0.08,0.02-0.17,0.04-0.25,0.06c-0.14,0.04-0.28,0.07-0.42,0.11c-0.09,0.02-0.19,0.05-0.28,0.07l-0.36,0.11
		c-0.08,0.02-0.16,0.05-0.24,0.07l-0.13,0.04c-0.25,0.08-0.5,0.16-0.75,0.25c-2.6,0.91-5.05,2.08-7.34,3.51l-0.01-0.01l-11.09-6.27
		l-4.32-2.45v0l-0.71-0.4l0-0.02l2.8-49.64h0l0-0.02l-29.47,35.63v23.18h12.49v7.5v1.24v2.05v9.53v0v0.02h-0.02h-10.92h-1.54v1.81
		v12.7v4.54l0,0v0.02h-0.02h-3.9h-4.94h-7.39h-9.99v-0.02v-19.06h-0.02h-16.62h-21.24h-1.38h-0.63h-7.81l0-0.02l-4.35-19.2
		l0.01-0.01l0-0.02l-36.32,46.03l4.22,18.64h46.27v18.51h25.45l35.75-41.5l4.82,2.73l-6.82,7.88l-15.11,17.69l1.88,1.69l1.93,1.61
		l1.98,1.52l2.04,1.44l2.1,1.34l2.17,1.24l2.24,1.14l2.32,1.04l2.39,0.93l2.48,0.82l2.57,0.7l2.67,0.58l2.77,0.46l2.88,0.33
		l2.99,0.2l3.11,0.07l4.25-0.15l4.08-0.44l3.89-0.73l3.69-1.01l3.47-1.29l3.24-1.55l2.99-1.81l2.74-2.06l2.46-2.32l22.14-24.16v33.6
		h26.4l27.68-28.96l1.83-0.46l3.59-1.23l3.36-1.5l3.12-1.77l2.86-2.04l2.58-2.3l20.16-20.97v59.24h26.4l18.69-18.34l12.2,18.34
		h30.35l10.21-9.62v9.62h77.3l11.43-10.19l2.03,1.38l2.53,1.54l2.6,1.42l2.68,1.3l2.75,1.17l2.81,1.06l2.87,0.93l2.92,0.81
		l2.97,0.68l3.02,0.56l3.05,0.43l3.1,0.31l3.13,0.19l3.15,0.06l4.24-0.14l4.05-0.4l3.84-0.66l3.64-0.91l3.4-1.17l3.17-1.41
		l2.92-1.65l2.66-1.88l39.88-34.07l0.06,0.02l-10.44,8.92l-14.7,17.55l2.27,1.9l2.36,1.78l2.44,1.66l2.53,1.54l2.6,1.42l2.68,1.3
		l2.74,1.17l2.81,1.06l2.87,0.93l2.92,0.81l2.97,0.68l3.02,0.56l3.06,0.43l3.1,0.31l3.13,0.19l3.15,0.06l4.24-0.14l4.05-0.4
		l3.85-0.66l3.63-0.91l3.41-1.17l3.17-1.41l2.92-1.65l2.66-1.88l55.04-44.74C766.99,147.15,762.97,149.13,758.3,150.52z"/>
</g>
<line class="st1" x1="891" y1="36.03" x2="891" y2="278.03"/>
<g>
	<path class="st1" d="M98.24,250.29h3.56l4.47,13.88l4.6-13.93h2.78l4.6,13.93l4.47-13.88h3.45l-6.5,18.85h-2.86l-4.6-13.45
		l-4.6,13.45h-2.83L98.24,250.29z"/>
	<path class="st1" d="M140.22,250.29h13.88v2.94h-10.59v4.87h9.39v2.94h-9.39v5.03h10.72v2.94h-14.01V250.29z"/>
	<path class="st1" d="M168.84,250.29h8.4c2.16,0,3.79,0.55,4.89,1.66c0.84,0.84,1.26,1.87,1.26,3.1v0.05c0,0.57-0.08,1.07-0.23,1.51
		c-0.15,0.44-0.35,0.82-0.59,1.15s-0.53,0.62-0.86,0.87c-0.33,0.25-0.66,0.46-1,0.64c0.55,0.2,1.06,0.42,1.51,0.68
		c0.45,0.26,0.85,0.57,1.18,0.92s0.58,0.78,0.76,1.26s0.27,1.04,0.27,1.68v0.05c0,0.84-0.17,1.58-0.49,2.22
		c-0.33,0.64-0.8,1.18-1.4,1.6c-0.61,0.43-1.34,0.75-2.19,0.98c-0.86,0.22-1.8,0.33-2.83,0.33h-8.66V250.29z M180.09,255.58
		c0-0.75-0.28-1.33-0.84-1.75s-1.38-0.63-2.45-0.63h-4.73v4.97h4.49c1.07,0,1.93-0.21,2.57-0.63c0.64-0.42,0.96-1.06,0.96-1.91
		V255.58z M181.14,263.47c0-0.8-0.32-1.42-0.95-1.86c-0.63-0.44-1.6-0.66-2.9-0.66h-5.21v5.13h5.46c1.12,0,2.01-0.21,2.65-0.64
		c0.64-0.43,0.96-1.07,0.96-1.93V263.47z"/>
	<path class="st1" d="M217.56,250.29h6.98c1.46,0,2.8,0.24,4.02,0.71c1.22,0.47,2.27,1.13,3.16,1.97s1.56,1.82,2.05,2.95
		c0.48,1.13,0.72,2.36,0.72,3.68v0.05c0,1.32-0.24,2.55-0.72,3.69c-0.48,1.14-1.16,2.13-2.05,2.97s-1.93,1.5-3.16,1.98
		c-1.22,0.48-2.56,0.72-4.02,0.72h-6.98V250.29z M220.84,253.28v12.73h3.69c0.98,0,1.87-0.16,2.67-0.47s1.48-0.75,2.05-1.31
		s1-1.23,1.31-2.01c0.31-0.78,0.47-1.62,0.47-2.53v-0.05c0-0.91-0.16-1.76-0.47-2.54s-0.75-1.46-1.31-2.02s-1.24-1-2.05-1.32
		c-0.8-0.32-1.69-0.48-2.67-0.48H220.84z"/>
	<path class="st1" d="M249.16,250.29h13.88v2.94h-10.59v4.87h9.39v2.94h-9.39v5.03h10.72v2.94h-14.01V250.29z"/>
	<path class="st1" d="M284.33,269.28c-1.44,0-2.83-0.25-4.15-0.74c-1.32-0.49-2.54-1.24-3.66-2.26l1.98-2.35
		c0.91,0.79,1.83,1.39,2.77,1.8c0.94,0.42,1.98,0.63,3.14,0.63c1.02,0,1.82-0.22,2.42-0.66c0.6-0.44,0.9-1,0.9-1.7v-0.05
		c0-0.34-0.06-0.64-0.17-0.9c-0.12-0.26-0.33-0.5-0.64-0.74c-0.31-0.23-0.74-0.45-1.28-0.64c-0.54-0.2-1.25-0.39-2.13-0.59
		c-1-0.23-1.89-0.5-2.66-0.79s-1.43-0.65-1.95-1.07s-0.93-0.93-1.2-1.54c-0.28-0.61-0.41-1.34-0.41-2.19v-0.05
		c0-0.8,0.16-1.54,0.48-2.21c0.32-0.67,0.76-1.24,1.32-1.71s1.23-0.84,2.02-1.11c0.78-0.27,1.64-0.4,2.57-0.4
		c1.37,0,2.61,0.2,3.7,0.6c1.1,0.4,2.13,0.99,3.09,1.75l-1.77,2.49c-0.86-0.62-1.7-1.1-2.54-1.43c-0.84-0.33-1.68-0.5-2.54-0.5
		c-0.96,0-1.71,0.21-2.25,0.64c-0.53,0.43-0.8,0.95-0.8,1.58v0.05c0,0.36,0.06,0.67,0.19,0.95s0.36,0.53,0.7,0.75
		c0.34,0.22,0.79,0.43,1.36,0.63c0.57,0.2,1.31,0.4,2.22,0.62c0.98,0.25,1.84,0.53,2.59,0.83c0.75,0.3,1.38,0.67,1.89,1.11
		c0.51,0.44,0.89,0.95,1.14,1.52c0.25,0.58,0.37,1.25,0.37,2.02v0.05c0,0.87-0.17,1.66-0.49,2.35c-0.33,0.7-0.79,1.28-1.38,1.77
		c-0.59,0.48-1.29,0.85-2.11,1.1C286.21,269.15,285.31,269.28,284.33,269.28z"/>
	<path class="st1" d="M305.77,250.29h3.29v18.72h-3.29V250.29z"/>
	<path class="st1" d="M333.63,269.33c-1.46,0-2.79-0.25-3.98-0.74s-2.21-1.17-3.06-2.03c-0.85-0.86-1.5-1.88-1.97-3.05
		c-0.46-1.17-0.7-2.44-0.7-3.81v-0.05c0-1.3,0.24-2.54,0.71-3.72s1.14-2.21,1.99-3.09c0.86-0.88,1.88-1.58,3.06-2.1
		c1.19-0.52,2.48-0.78,3.89-0.78c0.82,0,1.56,0.06,2.23,0.17c0.67,0.11,1.29,0.28,1.86,0.49c0.57,0.21,1.11,0.47,1.62,0.78
		c0.51,0.31,1,0.67,1.48,1.07l-2.09,2.48c-0.36-0.3-0.72-0.58-1.1-0.83c-0.37-0.25-0.77-0.46-1.18-0.63
		c-0.41-0.17-0.86-0.3-1.35-0.4c-0.49-0.1-1.03-0.15-1.62-0.15c-0.86,0-1.65,0.18-2.39,0.54c-0.74,0.36-1.38,0.83-1.93,1.43
		c-0.54,0.6-0.97,1.3-1.28,2.1c-0.31,0.8-0.47,1.65-0.47,2.55v0.05c0,0.96,0.15,1.86,0.45,2.68c0.3,0.82,0.74,1.53,1.3,2.12
		c0.56,0.59,1.23,1.05,2.01,1.39c0.78,0.34,1.64,0.51,2.61,0.51c0.89,0,1.73-0.13,2.5-0.39c0.78-0.26,1.45-0.6,2.02-1.03v-3.5h-4.79
		v-2.86h7.97v7.86c-0.46,0.39-0.98,0.77-1.54,1.12s-1.17,0.67-1.82,0.94s-1.35,0.48-2.1,0.63
		C335.24,269.25,334.45,269.33,333.63,269.33z"/>
	<path class="st1" d="M356.42,250.29h3.05l10.03,12.94v-12.94h3.24v18.72h-2.75l-10.32-13.32v13.32h-3.24V250.29z"/>
	<path class="st1" d="M415.97,247.67h2.81l-12.09,24.76h-2.81L415.97,247.67z"/>
	<path class="st1" d="M449.23,250.29h6.98c1.46,0,2.8,0.24,4.02,0.71c1.22,0.47,2.27,1.13,3.16,1.97s1.56,1.82,2.05,2.95
		c0.48,1.13,0.72,2.36,0.72,3.68v0.05c0,1.32-0.24,2.55-0.72,3.69c-0.48,1.14-1.16,2.13-2.05,2.97s-1.93,1.5-3.16,1.98
		c-1.22,0.48-2.56,0.72-4.02,0.72h-6.98V250.29z M452.52,253.28v12.73h3.69c0.98,0,1.87-0.16,2.67-0.47s1.48-0.75,2.05-1.31
		s1-1.23,1.31-2.01c0.31-0.78,0.47-1.62,0.47-2.53v-0.05c0-0.91-0.16-1.76-0.47-2.54s-0.75-1.46-1.31-2.02s-1.24-1-2.05-1.32
		c-0.8-0.32-1.69-0.48-2.67-0.48H452.52z"/>
	<path class="st1" d="M480.84,250.29h13.88v2.94h-10.59v4.87h9.39v2.94h-9.39v5.03h10.72v2.94h-14.01V250.29z"/>
	<path class="st1" d="M507.84,250.29h3.64l5.64,14.39l5.62-14.39h3.56l-7.75,18.85h-2.91L507.84,250.29z"/>
	<path class="st1" d="M540.2,250.29h13.88v2.94h-10.59v4.87h9.39v2.94h-9.39v5.03h10.72v2.94H540.2V250.29z"/>
	<path class="st1" d="M568.81,250.29h3.29v15.72h9.84v3h-13.13V250.29z"/>
	<path class="st1" d="M603.92,269.33c-1.44,0-2.76-0.25-3.96-0.76c-1.19-0.51-2.22-1.2-3.08-2.07c-0.86-0.87-1.52-1.89-2.01-3.06
		c-0.48-1.17-0.72-2.41-0.72-3.73v-0.05c0-1.32,0.24-2.56,0.72-3.73c0.48-1.17,1.16-2.19,2.03-3.08c0.87-0.88,1.91-1.58,3.1-2.1
		c1.19-0.52,2.51-0.78,3.96-0.78c1.44,0,2.76,0.25,3.96,0.76c1.19,0.51,2.22,1.2,3.08,2.07c0.86,0.87,1.52,1.89,2.01,3.06
		c0.48,1.17,0.72,2.41,0.72,3.73v0.05c0,1.32-0.24,2.56-0.72,3.73c-0.48,1.17-1.16,2.19-2.03,3.08c-0.87,0.88-1.91,1.58-3.1,2.1
		C606.68,269.07,605.36,269.33,603.92,269.33z M603.97,266.28c0.93,0,1.78-0.17,2.55-0.52s1.44-0.82,1.99-1.41
		c0.55-0.59,0.98-1.29,1.3-2.09c0.31-0.8,0.47-1.66,0.47-2.57v-0.05c0-0.91-0.16-1.77-0.47-2.58c-0.31-0.81-0.75-1.52-1.31-2.12
		c-0.56-0.6-1.23-1.08-2.02-1.43c-0.78-0.36-1.64-0.54-2.57-0.54c-0.93,0-1.78,0.17-2.55,0.52s-1.44,0.82-1.99,1.42
		c-0.55,0.6-0.99,1.3-1.3,2.1c-0.31,0.8-0.47,1.66-0.47,2.57v0.05c0,0.91,0.16,1.77,0.47,2.57c0.31,0.8,0.75,1.51,1.31,2.12
		s1.23,1.08,2.02,1.43C602.19,266.11,603.05,266.28,603.97,266.28z"/>
	<path class="st1" d="M628.41,250.29h7.38c1.09,0,2.07,0.15,2.96,0.44c0.88,0.29,1.63,0.72,2.25,1.27s1.09,1.21,1.42,1.98
		c0.33,0.77,0.5,1.62,0.5,2.57v0.05c0,1.05-0.2,1.97-0.59,2.77c-0.39,0.79-0.93,1.46-1.6,1.99c-0.68,0.53-1.47,0.94-2.38,1.22
		c-0.91,0.28-1.88,0.42-2.91,0.42h-3.72v6.02h-3.29V250.29z M635.53,260c1.25,0,2.23-0.31,2.95-0.93c0.72-0.62,1.08-1.42,1.08-2.4
		v-0.05c0-1.1-0.37-1.93-1.1-2.49c-0.73-0.56-1.71-0.84-2.94-0.84h-3.82V260H635.53z"/>
	<path class="st1" d="M656.97,250.29h3.5l5.7,8.85l5.7-8.85h3.5v18.72h-3.29v-13.42l-5.91,8.82h-0.11l-5.86-8.77v13.37h-3.24V250.29
		z"/>
	<path class="st1" d="M690.88,250.29h13.88v2.94h-10.59v4.87h9.39v2.94h-9.39v5.03h10.72v2.94h-14.01V250.29z"/>
	<path class="st1" d="M719.49,250.29h3.05l10.03,12.94v-12.94h3.24v18.72h-2.75l-10.32-13.32v13.32h-3.24V250.29z"/>
	<path class="st1" d="M755.91,253.34h-5.94v-3.05h15.19v3.05h-5.94v15.67h-3.32V253.34z"/>
</g>
<g>
	<path class="st1" d="M1142.09,250.29h3.56l4.47,13.88l4.6-13.93h2.78l4.6,13.93l4.46-13.88h3.45l-6.5,18.85h-2.86l-4.6-13.45
		l-4.6,13.45h-2.83L1142.09,250.29z"/>
	<path class="st1" d="M1190.49,250.29h13.88v2.94h-10.59v4.87h9.39v2.94h-9.39v5.03h10.72v2.94h-14.01V250.29z"/>
	<path class="st1" d="M1225.52,250.29h8.4c2.16,0,3.79,0.55,4.89,1.66c0.84,0.84,1.26,1.87,1.26,3.1v0.05
		c0,0.57-0.08,1.07-0.23,1.51c-0.15,0.44-0.35,0.82-0.59,1.15c-0.24,0.33-0.53,0.62-0.86,0.87c-0.33,0.25-0.66,0.46-1,0.64
		c0.55,0.2,1.06,0.42,1.51,0.68c0.45,0.26,0.85,0.57,1.18,0.92s0.58,0.78,0.76,1.26c0.18,0.48,0.27,1.04,0.27,1.68v0.05
		c0,0.84-0.17,1.58-0.5,2.22s-0.8,1.18-1.4,1.6c-0.61,0.43-1.34,0.75-2.19,0.98c-0.86,0.22-1.8,0.33-2.83,0.33h-8.66V250.29z
		 M1236.78,255.58c0-0.75-0.28-1.33-0.84-1.75s-1.38-0.63-2.45-0.63h-4.73v4.97h4.49c1.07,0,1.93-0.21,2.57-0.63
		s0.96-1.06,0.96-1.91V255.58z M1237.82,263.47c0-0.8-0.32-1.42-0.95-1.86c-0.63-0.44-1.6-0.66-2.9-0.66h-5.21v5.13h5.46
		c1.12,0,2.01-0.21,2.65-0.64s0.96-1.07,0.96-1.93V263.47z"/>
	<path class="st1" d="M1287.07,250.29h3.29v7.78h8.93v-7.78h3.29v18.72h-3.29v-7.89h-8.93v7.89h-3.29V250.29z"/>
	<path class="st1" d="M1333.44,269.33c-1.44,0-2.76-0.25-3.96-0.76c-1.2-0.51-2.22-1.2-3.08-2.07c-0.86-0.87-1.52-1.89-2.01-3.06
		c-0.48-1.17-0.72-2.41-0.72-3.73v-0.05c0-1.32,0.24-2.56,0.72-3.73c0.48-1.17,1.16-2.19,2.03-3.08c0.87-0.88,1.91-1.58,3.1-2.1
		c1.19-0.52,2.51-0.78,3.96-0.78s2.76,0.25,3.96,0.76c1.19,0.51,2.22,1.2,3.08,2.07c0.86,0.87,1.52,1.89,2.01,3.06
		c0.48,1.17,0.72,2.41,0.72,3.73v0.05c0,1.32-0.24,2.56-0.72,3.73s-1.16,2.19-2.03,3.08c-0.87,0.88-1.91,1.58-3.1,2.1
		C1336.2,269.07,1334.89,269.33,1333.44,269.33z M1333.5,266.28c0.93,0,1.78-0.17,2.55-0.52s1.44-0.82,1.99-1.41
		c0.55-0.59,0.98-1.29,1.3-2.09c0.31-0.8,0.47-1.66,0.47-2.57v-0.05c0-0.91-0.16-1.77-0.47-2.58c-0.31-0.81-0.75-1.52-1.31-2.12
		c-0.56-0.6-1.23-1.08-2.02-1.43c-0.79-0.36-1.64-0.54-2.57-0.54s-1.78,0.17-2.55,0.52s-1.44,0.82-1.99,1.42s-0.99,1.3-1.3,2.1
		s-0.47,1.66-0.47,2.57v0.05c0,0.91,0.16,1.77,0.47,2.57c0.31,0.8,0.75,1.51,1.31,2.12s1.23,1.08,2.02,1.43
		S1332.57,266.28,1333.5,266.28z"/>
	<path class="st1" d="M1370.77,269.28c-1.44,0-2.83-0.25-4.14-0.74c-1.32-0.49-2.54-1.24-3.66-2.26l1.98-2.35
		c0.91,0.79,1.83,1.39,2.77,1.8c0.94,0.42,1.98,0.63,3.14,0.63c1.02,0,1.82-0.22,2.42-0.66c0.6-0.44,0.9-1,0.9-1.7v-0.05
		c0-0.34-0.06-0.64-0.17-0.9c-0.12-0.26-0.33-0.5-0.64-0.74c-0.31-0.23-0.74-0.45-1.28-0.64s-1.25-0.39-2.13-0.59
		c-1-0.23-1.88-0.5-2.66-0.79s-1.43-0.65-1.95-1.07c-0.53-0.42-0.93-0.93-1.2-1.54c-0.28-0.61-0.42-1.34-0.42-2.19v-0.05
		c0-0.8,0.16-1.54,0.48-2.21c0.32-0.67,0.76-1.24,1.32-1.71s1.23-0.84,2.02-1.11c0.78-0.27,1.64-0.4,2.57-0.4
		c1.37,0,2.61,0.2,3.7,0.6s2.13,0.99,3.09,1.75l-1.77,2.49c-0.86-0.62-1.7-1.1-2.54-1.43s-1.68-0.5-2.54-0.5
		c-0.96,0-1.71,0.21-2.25,0.64c-0.54,0.43-0.8,0.95-0.8,1.58v0.05c0,0.36,0.06,0.67,0.19,0.95c0.12,0.28,0.36,0.53,0.7,0.75
		c0.34,0.22,0.79,0.43,1.36,0.63s1.31,0.4,2.22,0.62c0.98,0.25,1.84,0.53,2.59,0.83c0.75,0.3,1.38,0.67,1.89,1.11
		c0.51,0.44,0.89,0.95,1.14,1.52s0.38,1.25,0.38,2.02v0.05c0,0.87-0.17,1.66-0.5,2.35s-0.79,1.28-1.38,1.77
		c-0.59,0.48-1.29,0.85-2.11,1.1C1372.65,269.15,1371.75,269.28,1370.77,269.28z"/>
	<path class="st1" d="M1402.64,253.34h-5.94v-3.05h15.19v3.05h-5.94v15.67h-3.32V253.34z"/>
	<path class="st1" d="M1432.67,250.29h3.29v18.72h-3.29V250.29z"/>
	<path class="st1" d="M1458.08,250.29h3.05l10.03,12.94v-12.94h3.24v18.72h-2.75l-10.32-13.32v13.32h-3.24V250.29z"/>
	<path class="st1" d="M1505.19,269.33c-1.46,0-2.79-0.25-3.98-0.74s-2.21-1.17-3.06-2.03c-0.85-0.86-1.5-1.88-1.96-3.05
		c-0.46-1.17-0.7-2.44-0.7-3.81v-0.05c0-1.3,0.24-2.54,0.71-3.72c0.47-1.18,1.14-2.21,1.99-3.09c0.86-0.88,1.88-1.58,3.06-2.1
		c1.18-0.52,2.48-0.78,3.89-0.78c0.82,0,1.56,0.06,2.23,0.17c0.67,0.11,1.29,0.28,1.86,0.49c0.57,0.21,1.11,0.47,1.62,0.78
		c0.51,0.31,1,0.67,1.48,1.07l-2.08,2.48c-0.36-0.3-0.72-0.58-1.1-0.83c-0.37-0.25-0.77-0.46-1.18-0.63
		c-0.41-0.17-0.86-0.3-1.35-0.4c-0.49-0.1-1.03-0.15-1.62-0.15c-0.86,0-1.65,0.18-2.39,0.54c-0.74,0.36-1.38,0.83-1.92,1.43
		c-0.54,0.6-0.97,1.3-1.28,2.1s-0.47,1.65-0.47,2.55v0.05c0,0.96,0.15,1.86,0.46,2.68c0.3,0.82,0.74,1.53,1.3,2.12
		c0.56,0.59,1.23,1.05,2,1.39c0.78,0.34,1.64,0.51,2.61,0.51c0.89,0,1.72-0.13,2.5-0.39c0.78-0.26,1.45-0.6,2.02-1.03v-3.5h-4.79
		v-2.86h7.97v7.86c-0.46,0.39-0.98,0.77-1.54,1.12s-1.17,0.67-1.82,0.94c-0.65,0.27-1.35,0.48-2.1,0.63
		C1506.8,269.25,1506.01,269.33,1505.19,269.33z"/>
</g>
</svg>
