<svg width="300" height="300" viewBox="0 0 300 300" fill="none" xmlns="http://www.w3.org/2000/svg">
<g clip-path="url(#clip0_14_4)">
<path d="M141 7.50555C146.569 4.29016 153.431 4.29016 159 7.50555L268.904 70.9585C274.473 74.1739 277.904 80.1162 277.904 86.547V213.453C277.904 219.884 274.473 225.826 268.904 229.041L159 292.494C153.431 295.71 146.569 295.71 141 292.494L31.0962 229.041C25.527 225.826 22.0962 219.884 22.0962 213.453V86.547C22.0962 80.1162 25.527 74.1739 31.0962 70.9585L141 7.50555Z" stroke="#363636" stroke-width="4"/>
<path d="M141 7.50555C146.569 4.29016 153.431 4.29016 159 7.50555L268.904 70.9585C274.473 74.1739 277.904 80.1162 277.904 86.547V213.453C277.904 219.884 274.473 225.826 268.904 229.041L159 292.494C153.431 295.71 146.569 295.71 141 292.494L31.0962 229.041C25.527 225.826 22.0962 219.884 22.0962 213.453V86.547C22.0962 80.1162 25.527 74.1739 31.0962 70.9585L141 7.50555Z" fill="white" stroke="#363636" stroke-width="4"/>
<path d="M140 21.7735C146.188 18.2008 153.812 18.2008 160 21.7735L256.047 77.2265C262.235 80.7991 266.047 87.4017 266.047 94.547V205.453C266.047 212.598 262.235 219.201 256.047 222.773L160 278.227C153.812 281.799 146.188 281.799 140 278.227L43.9526 222.773C37.7646 219.201 33.9526 212.598 33.9526 205.453V94.547C33.9526 87.4017 37.7646 80.7992 43.9526 77.2265L140 21.7735Z" fill="#363636"/>
<path d="M140.5 33.6395C146.379 30.2455 153.621 30.2455 159.5 33.6395L246.021 83.5925C251.9 86.9865 255.521 93.259 255.521 100.047V199.953C255.521 206.741 251.9 213.013 246.021 216.407L159.5 266.36C153.621 269.754 146.379 269.754 140.5 266.36L53.9789 216.407C48.1003 213.013 44.4789 206.741 44.4789 199.953V100.047C44.4789 93.259 48.1003 86.9865 53.9789 83.5925L140.5 33.6395Z" stroke="white" stroke-width="2"/>
<path d="M140.75 16.0725C146.474 12.7678 153.526 12.7678 159.25 16.0725L261.36 75.0255C267.083 78.3302 270.61 84.4376 270.61 91.047V208.953C270.61 215.562 267.083 221.67 261.36 224.974L159.25 283.927C153.526 287.232 146.474 287.232 140.75 283.927L38.6404 224.974C32.9165 221.67 29.3904 215.562 29.3904 208.953V91.047C29.3904 84.4376 32.9165 78.3302 38.6404 75.0255L140.75 16.0725Z" stroke="#D02C2C" stroke-width="3"/>
<path d="M149.5 281L262.516 212H36.4837L149.5 281Z" fill="#363636"/>
<rect x="41" y="184" width="219" height="29" fill="#363636"/>
<rect x="248" y="159" width="13" height="37" fill="#363636"/>
<path d="M219.317 227.5L202.03 242.655L202.03 212.345L219.317 227.5Z" fill="white"/>
<path d="M215.049 227.5L197.762 242.655L197.762 212.345L215.049 227.5Z" fill="#363636"/>
<line x1="112.552" y1="212.388" x2="104.449" y2="242.628" stroke="white" stroke-width="3"/>
<path d="M80 227.297L97.0859 212.317L97.0859 242.276L80 227.297Z" fill="white"/>
<path d="M84.2188 227.297L101.305 212.317L101.305 242.276L84.2188 227.297Z" fill="#363636"/>
<path d="M117.886 239V235.455L126.17 227.784C126.875 227.102 127.466 226.489 127.943 225.943C128.428 225.398 128.795 224.864 129.045 224.341C129.295 223.811 129.42 223.239 129.42 222.625C129.42 221.943 129.265 221.356 128.955 220.864C128.644 220.364 128.22 219.981 127.682 219.716C127.144 219.443 126.534 219.307 125.852 219.307C125.14 219.307 124.519 219.451 123.989 219.739C123.458 220.027 123.049 220.439 122.761 220.977C122.473 221.515 122.33 222.155 122.33 222.898H117.659C117.659 221.375 118.004 220.053 118.693 218.932C119.383 217.811 120.348 216.943 121.591 216.33C122.833 215.716 124.265 215.409 125.886 215.409C127.553 215.409 129.004 215.705 130.239 216.295C131.481 216.879 132.447 217.689 133.136 218.727C133.826 219.765 134.17 220.955 134.17 222.295C134.17 223.174 133.996 224.042 133.648 224.898C133.307 225.754 132.697 226.705 131.818 227.75C130.939 228.788 129.701 230.034 128.102 231.489L124.705 234.818V234.977H134.477V239H117.886ZM147.168 239.511C145.213 239.504 143.531 239.023 142.122 238.068C140.721 237.114 139.641 235.731 138.884 233.92C138.134 232.11 137.762 229.932 137.77 227.386C137.77 224.848 138.145 222.686 138.895 220.898C139.652 219.11 140.732 217.75 142.134 216.818C143.543 215.879 145.221 215.409 147.168 215.409C149.115 215.409 150.789 215.879 152.19 216.818C153.599 217.758 154.683 219.121 155.44 220.909C156.198 222.689 156.573 224.848 156.565 227.386C156.565 229.939 156.187 232.121 155.429 233.932C154.679 235.742 153.603 237.125 152.202 238.08C150.8 239.034 149.122 239.511 147.168 239.511ZM147.168 235.432C148.501 235.432 149.565 234.761 150.361 233.42C151.156 232.08 151.55 230.068 151.543 227.386C151.543 225.621 151.361 224.152 150.997 222.977C150.641 221.803 150.134 220.92 149.474 220.33C148.823 219.739 148.054 219.443 147.168 219.443C145.842 219.443 144.781 220.106 143.986 221.432C143.19 222.758 142.789 224.742 142.781 227.386C142.781 229.174 142.959 230.667 143.315 231.864C143.679 233.053 144.19 233.947 144.849 234.545C145.509 235.136 146.281 235.432 147.168 235.432ZM160.074 239V235.455L168.358 227.784C169.063 227.102 169.653 226.489 170.131 225.943C170.616 225.398 170.983 224.864 171.233 224.341C171.483 223.811 171.608 223.239 171.608 222.625C171.608 221.943 171.453 221.356 171.142 220.864C170.831 220.364 170.407 219.981 169.869 219.716C169.331 219.443 168.722 219.307 168.04 219.307C167.328 219.307 166.706 219.451 166.176 219.739C165.646 220.027 165.237 220.439 164.949 220.977C164.661 221.515 164.517 222.155 164.517 222.898H159.847C159.847 221.375 160.191 220.053 160.881 218.932C161.57 217.811 162.536 216.943 163.778 216.33C165.021 215.716 166.453 215.409 168.074 215.409C169.741 215.409 171.191 215.705 172.426 216.295C173.669 216.879 174.634 217.689 175.324 218.727C176.013 219.765 176.358 220.955 176.358 222.295C176.358 223.174 176.184 224.042 175.835 224.898C175.494 225.754 174.884 226.705 174.006 227.75C173.127 228.788 171.888 230.034 170.29 231.489L166.892 234.818V234.977H176.665V239H160.074ZM188.832 239.318C187.135 239.318 185.624 239.027 184.298 238.443C182.98 237.852 181.938 237.042 181.173 236.011C180.416 234.973 180.026 233.777 180.003 232.42H184.957C184.988 232.989 185.173 233.489 185.514 233.92C185.863 234.345 186.325 234.674 186.901 234.909C187.476 235.144 188.124 235.261 188.844 235.261C189.594 235.261 190.257 235.129 190.832 234.864C191.408 234.598 191.859 234.231 192.185 233.761C192.51 233.292 192.673 232.75 192.673 232.136C192.673 231.515 192.499 230.966 192.151 230.489C191.81 230.004 191.317 229.625 190.673 229.352C190.037 229.08 189.279 228.943 188.401 228.943H186.23V225.33H188.401C189.143 225.33 189.798 225.201 190.366 224.943C190.942 224.686 191.389 224.33 191.707 223.875C192.026 223.413 192.185 222.875 192.185 222.261C192.185 221.678 192.045 221.167 191.764 220.727C191.491 220.28 191.105 219.932 190.605 219.682C190.113 219.432 189.537 219.307 188.878 219.307C188.211 219.307 187.601 219.428 187.048 219.67C186.495 219.905 186.052 220.242 185.719 220.682C185.385 221.121 185.207 221.636 185.185 222.227H180.469C180.491 220.886 180.874 219.705 181.616 218.682C182.359 217.659 183.359 216.86 184.616 216.284C185.882 215.701 187.31 215.409 188.901 215.409C190.507 215.409 191.912 215.701 193.116 216.284C194.321 216.867 195.257 217.655 195.923 218.648C196.598 219.633 196.931 220.739 196.923 221.966C196.931 223.269 196.526 224.356 195.707 225.227C194.897 226.098 193.84 226.652 192.537 226.886V227.068C194.249 227.288 195.552 227.883 196.446 228.852C197.348 229.814 197.795 231.019 197.787 232.466C197.795 233.792 197.412 234.97 196.639 236C195.874 237.03 194.817 237.841 193.469 238.432C192.12 239.023 190.575 239.318 188.832 239.318Z" fill="white"/>
<rect x="119" y="36" width="63" height="25" fill="#363636"/>
<path d="M150.5 22L172.584 40H128.416L150.5 22Z" fill="#363636"/>
<path d="M133.26 55C132.588 55 132.252 54.664 132.252 53.992V49.096L126.756 40.336C126.42 39.76 126.524 39.288 127.068 38.92C127.644 38.568 128.108 38.672 128.46 39.232L133.26 46.936L138.3 39.232C138.468 38.968 138.672 38.812 138.912 38.764C139.152 38.708 139.404 38.776 139.668 38.968C140.252 39.328 140.356 39.784 139.98 40.336L134.268 49.096V53.992C134.268 54.664 133.932 55 133.26 55ZM147.452 55C145.62 55 144.264 54.564 143.384 53.692C142.512 52.812 142.076 51.456 142.076 49.624V44.104C142.076 42.256 142.512 40.896 143.384 40.024C144.256 39.144 145.604 38.712 147.428 38.728H150.332C151.836 38.728 152.984 39.04 153.776 39.664C154.568 40.28 155.028 41.256 155.156 42.592C155.204 42.928 155.14 43.184 154.964 43.36C154.788 43.536 154.532 43.624 154.196 43.624C153.588 43.624 153.236 43.288 153.14 42.616C153.06 41.88 152.804 41.384 152.372 41.128C151.948 40.872 151.268 40.744 150.332 40.744H147.428C146.58 40.736 145.912 40.832 145.424 41.032C144.944 41.232 144.6 41.58 144.392 42.076C144.192 42.564 144.092 43.24 144.092 44.104V49.624C144.092 50.48 144.192 51.152 144.392 51.64C144.6 52.128 144.948 52.476 145.436 52.684C145.924 52.884 146.596 52.984 147.452 52.984H150.332C151.268 52.984 151.948 52.856 152.372 52.6C152.804 52.336 153.06 51.84 153.14 51.112C153.236 50.44 153.588 50.104 154.196 50.104C154.532 50.104 154.788 50.192 154.964 50.368C155.14 50.544 155.204 50.8 155.156 51.136C155.028 52.48 154.568 53.46 153.776 54.076C152.984 54.692 151.836 55 150.332 55H147.452ZM164.163 55C162.331 55 160.975 54.564 160.095 53.692C159.223 52.812 158.787 51.456 158.787 49.624V44.104C158.787 42.256 159.223 40.896 160.095 40.024C160.967 39.144 162.315 38.712 164.139 38.728H167.043C168.547 38.728 169.695 39.04 170.487 39.664C171.279 40.28 171.739 41.256 171.867 42.592C171.915 42.928 171.851 43.184 171.675 43.36C171.499 43.536 171.243 43.624 170.907 43.624C170.299 43.624 169.947 43.288 169.851 42.616C169.771 41.88 169.515 41.384 169.083 41.128C168.659 40.872 167.979 40.744 167.043 40.744H164.139C163.291 40.736 162.623 40.832 162.135 41.032C161.655 41.232 161.311 41.58 161.103 42.076C160.903 42.564 160.803 43.24 160.803 44.104V49.624C160.803 50.48 160.903 51.152 161.103 51.64C161.311 52.128 161.659 52.476 162.147 52.684C162.635 52.884 163.307 52.984 164.163 52.984H167.043C167.979 52.984 168.659 52.856 169.083 52.6C169.515 52.336 169.771 51.84 169.851 51.112C169.947 50.44 170.299 50.104 170.907 50.104C171.243 50.104 171.499 50.192 171.675 50.368C171.851 50.544 171.915 50.8 171.867 51.136C171.739 52.48 171.279 53.46 170.487 54.076C169.695 54.692 168.547 55 167.043 55H164.163Z" fill="white"/>
<line x1="85" y1="66" x2="85" y2="87" stroke="white" stroke-width="2" stroke-linecap="round"/>
<path d="M72 80V101" stroke="white" stroke-width="2" stroke-linecap="round"/>
<line x1="85" y1="87" x2="97" y2="87" stroke="white" stroke-width="2" stroke-linecap="round"/>
<line x1="72" y1="80" x2="84" y2="80" stroke="white" stroke-width="2" stroke-linecap="round"/>
<line x1="98" y1="95" x2="109" y2="95" stroke="white" stroke-width="2" stroke-linecap="round"/>
<line x1="130" y1="91" x2="141" y2="91" stroke="white" stroke-width="2" stroke-linecap="round"/>
<line x1="110" y1="72" x2="126" y2="72" stroke="white" stroke-width="2" stroke-linecap="round"/>
<line x1="213" y1="83" x2="222" y2="83" stroke="white" stroke-width="2" stroke-linecap="round"/>
<line x1="201" y1="73" x2="210" y2="73" stroke="white" stroke-width="2" stroke-linecap="round"/>
<line x1="191" y1="78" x2="200" y2="78" stroke="white" stroke-width="2" stroke-linecap="round"/>
<line x1="174" y1="104" x2="183" y2="104" stroke="white" stroke-width="2" stroke-linecap="round"/>
<line x1="162" y1="83" x2="174" y2="83" stroke="white" stroke-width="2" stroke-linecap="round"/>
<line x1="98" y1="95" x2="98" y2="106" stroke="white" stroke-width="2" stroke-linecap="round"/>
<line x1="141" y1="80" x2="141" y2="91" stroke="white" stroke-width="2" stroke-linecap="round"/>
<line x1="109" y1="52" x2="109" y2="95" stroke="white" stroke-width="2" stroke-linecap="round"/>
<line x1="200" y1="57" x2="200" y2="78" stroke="white" stroke-width="2" stroke-linecap="round"/>
<line x1="174" y1="83" x2="174" y2="115" stroke="white" stroke-width="2" stroke-linecap="round"/>
<line x1="58" y1="109" x2="58" y2="130" stroke="white" stroke-width="2" stroke-linecap="round"/>
<path d="M223 71L223 91" stroke="white" stroke-width="2" stroke-linecap="round"/>
<path d="M130 91L130 111" stroke="white" stroke-width="2" stroke-linecap="round"/>
<path d="M213 83L213 97" stroke="white" stroke-width="2" stroke-linecap="round"/>
<path d="M191 78L191 92" stroke="white" stroke-width="2" stroke-linecap="round"/>
<circle cx="98" cy="87" r="2" fill="white"/>
<circle cx="98" cy="107" r="2" fill="white"/>
<circle cx="141" cy="80" r="2" fill="white"/>
<circle cx="72" cy="102" r="2" fill="white"/>
<circle cx="58" cy="109" r="2" fill="white"/>
<circle cx="126" cy="72" r="2" fill="white"/>
<circle cx="223" cy="91" r="2" fill="white"/>
<circle cx="213" cy="97" r="2" fill="white"/>
<circle cx="210" cy="73" r="2" fill="white"/>
<circle cx="191" cy="92" r="2" fill="white"/>
<circle cx="184" cy="104" r="2" fill="white"/>
<circle cx="162" cy="83" r="2" fill="white"/>
<rect x="-1.42007" y="-1.0899" width="146.925" height="71.1314" transform="matrix(0.961933 -0.273286 -0.0152206 0.999884 151.469 123.41)" fill="white" stroke="#363636" stroke-width="3"/>
<path d="M174.417 135.573C174.417 134.886 174.778 134.45 175.5 134.266L179.455 133.257C181.024 132.857 182.231 133.229 183.078 134.374L189.823 143.374L196.547 130.939C197.407 129.358 198.615 128.37 200.169 127.974L204.145 126.959C204.853 126.779 205.207 127.032 205.207 127.72C205.207 128.035 205.096 128.4 204.874 128.815L193.738 149.423L193.738 158.446C193.738 159.005 193.544 159.527 193.156 160.013C192.781 160.481 192.323 160.784 191.782 160.922L187.868 161.92C187.327 162.058 186.862 161.991 186.473 161.718C186.084 161.43 185.89 161.007 185.89 160.448L185.889 151.425L174.771 136.493C174.535 136.195 174.417 135.888 174.417 135.573ZM206.499 149.283C206.499 148.438 206.742 147.775 207.228 147.293C207.713 146.796 208.185 146.49 208.643 146.373L211.121 145.741C212.37 145.423 213.32 145.882 213.973 147.119C214.625 148.356 216.09 148.685 218.366 148.104L225.652 146.396C228.094 145.773 229.316 144.638 229.316 142.991C229.316 141.745 227.823 141.144 224.84 141.189C223.507 141.2 222.036 141.253 220.426 141.348C218.816 141.429 217.213 141.43 215.617 141.35C214.035 141.267 212.578 141.065 211.245 140.746C209.913 140.427 208.83 139.801 207.997 138.868C207.179 137.916 206.769 136.66 206.769 135.099C206.769 132.22 207.761 129.754 209.745 127.701C211.73 125.634 215.144 123.982 219.988 122.747L225.275 121.527C228.12 120.801 230.681 120.907 232.957 121.845C235.247 122.765 236.392 124.356 236.393 126.619C236.393 127.464 236.15 128.135 235.664 128.631C235.178 129.127 234.713 129.432 234.269 129.545L231.792 130.177C230.543 130.496 229.592 130.037 228.94 128.799C228.287 127.548 226.823 127.212 224.547 127.793L218.281 129.262C215.838 129.885 214.617 131.02 214.617 132.667C214.617 133.57 215.388 134.111 216.928 134.291C218.483 134.467 220.356 134.498 222.549 134.383C224.756 134.249 226.969 134.208 229.19 134.257C231.411 134.307 233.291 134.844 234.832 135.869C236.386 136.876 237.164 138.432 237.164 140.538C237.164 143.417 236.165 145.892 234.167 147.963C232.182 150.016 228.775 151.658 223.945 152.89L217.637 154.37C214.792 155.096 212.225 154.999 209.935 154.079C207.645 153.145 206.499 151.546 206.499 149.283ZM241.015 136.182L241.014 119.597C241.014 119.038 241.201 118.51 241.576 118.014C241.964 117.514 242.443 117.191 243.012 117.046L246.905 116.053C247.432 115.918 247.89 116.002 248.279 116.304C248.668 116.606 248.862 117.036 248.862 117.595L248.863 134.224C248.863 136.329 249.308 137.784 250.196 138.589C251.098 139.39 252.486 139.552 254.36 139.074L257.691 138.224C259.564 137.746 260.945 136.878 261.833 135.621C262.735 134.359 263.186 132.676 263.186 130.57L263.185 113.941C263.185 113.383 263.372 112.855 263.747 112.359C264.135 111.858 264.6 111.539 265.141 111.401L269.014 110.414C269.583 110.269 270.061 110.347 270.45 110.649C270.839 110.951 271.033 111.381 271.033 111.94L271.034 128.526C271.035 132.45 269.918 135.779 267.683 138.511C265.449 141.23 262.188 143.136 257.899 144.23L254.152 145.185C249.85 146.283 246.581 146.042 244.346 144.464C242.126 142.867 241.015 140.107 241.015 136.182Z" fill="#D02C2C"/>
<rect x="-1.42007" y="-1.0899" width="153.311" height="71.1314" transform="matrix(0.961933 -0.273286 -0.0152206 0.999884 12.4692 141.944)" fill="white" stroke="#363636" stroke-width="3"/>
<path d="M16.1592 186.905L16.1573 160.157C16.1573 159.599 16.3515 159.069 16.7401 158.569C17.1287 158.069 17.6075 157.746 18.1765 157.601L22.0486 156.613C22.5899 156.475 23.0479 156.559 23.4226 156.865C23.8113 157.166 24.0056 157.597 24.0056 158.155L24.0063 167.823L38.329 164.17L38.3283 154.502C38.3283 153.943 38.5225 153.414 38.9111 152.914C39.2997 152.414 39.7646 152.095 40.3059 151.957L44.178 150.969C44.747 150.824 45.2189 150.904 45.5936 151.209C45.9823 151.511 46.1766 151.942 46.1766 152.5L46.1786 179.248C46.1786 179.807 45.9774 180.338 45.575 180.842C45.1864 181.328 44.7215 181.639 44.1802 181.778L40.3081 182.765C39.7668 182.903 39.3019 182.836 38.9133 182.562C38.5246 182.275 38.3303 181.852 38.3303 181.293L38.3295 170.25L24.0068 173.903L24.0076 184.946C24.0076 185.505 23.8134 186.027 23.4248 186.513C23.0501 186.981 22.5921 187.284 22.0508 187.422L18.1787 188.41C17.6375 188.548 17.1656 188.475 16.7631 188.191C16.3606 187.892 16.1593 187.464 16.1592 186.905ZM49.7176 178.389L54.9414 156.603C56.3566 150.67 60.9641 146.702 68.7639 144.698L79.9847 141.836C80.4982 141.705 80.9215 141.797 81.2546 142.113C81.6016 142.426 81.7751 142.847 81.7752 143.377L81.7771 170.211C81.7771 170.77 81.5829 171.292 81.1943 171.778C80.8057 172.249 80.3408 172.554 79.7996 172.692L75.8858 173.69C75.3168 173.836 74.8449 173.77 74.4701 173.493C74.1093 173.198 73.9288 172.757 73.9288 172.17L73.9284 166.756L59.1269 170.531L57.7325 176.301C57.5937 176.924 57.2815 177.49 56.7958 178.001C56.3101 178.497 55.7966 178.815 55.2553 178.953L51.1542 179.999C50.6129 180.137 50.2243 180.078 49.9884 179.823C49.7524 179.554 49.6344 179.298 49.6344 179.054C49.6483 178.807 49.676 178.585 49.7176 178.389ZM60.667 164.058L73.9279 160.676L73.9271 149.461L67.994 150.974C66.6617 151.314 65.4959 152.006 64.4967 153.048C63.5114 154.073 62.8453 155.288 62.4984 156.695L60.667 164.058ZM89.8751 166.491C87.3074 164.611 86.0234 161.021 86.023 155.722C86.0226 150.408 87.3061 146.156 89.8734 142.966C92.4546 139.758 96.3197 137.497 101.469 136.184L106.111 135C109.261 134.196 112.044 134.332 114.459 135.406C116.888 136.476 118.103 138.48 118.103 141.416C118.103 142.261 117.86 142.932 117.374 143.428C116.889 143.91 116.417 144.209 115.959 144.326L113.481 144.958C112.205 145.284 111.212 144.749 110.504 143.354C109.477 141.353 107.77 140.657 105.383 141.266L101.677 142.211C98.6379 142.986 96.577 144.185 95.4945 145.808C94.4121 147.43 93.871 150.06 93.8713 153.698C93.8716 157.336 94.413 159.698 95.4956 160.782C96.5783 161.852 98.6393 162 101.679 161.225L105.821 160.168C108.209 159.559 109.909 157.994 110.922 155.473C111.629 153.702 112.628 152.652 113.919 152.323L116.396 151.691C117.049 151.525 117.562 151.645 117.937 152.05C118.326 152.453 118.52 152.947 118.52 153.534C118.52 156.471 117.313 159.092 114.898 161.398C112.484 163.69 109.701 165.237 106.55 166.041L101.471 167.336C96.322 168.65 92.4567 168.368 89.8751 166.491ZM153.474 152.955C153.474 153.585 153.113 153.992 152.391 154.176L147.624 155.392C147.083 155.53 146.5 155.486 145.875 155.258C145.251 155.017 144.765 154.661 144.418 154.191L140.754 149.131C139.879 147.893 138.998 147.022 138.11 146.518C137.221 146 136.153 145.9 134.903 146.219L130.428 147.36L130.428 157.802C130.428 158.36 130.234 158.883 129.846 159.369C129.471 159.836 129.013 160.14 128.472 160.278L124.558 161.276C124.017 161.414 123.552 161.332 123.163 161.03C122.774 160.714 122.58 160.276 122.58 159.718L122.578 133.013C122.578 132.454 122.772 131.918 123.161 131.403C123.55 130.889 124.014 130.562 124.556 130.424L128.469 129.426C129.011 129.288 129.469 129.379 129.843 129.699C130.232 130.015 130.426 130.452 130.426 131.011L130.427 141.302L134.903 140.16C136.124 139.849 137.193 139.232 138.109 138.311C139.039 137.387 139.92 136.052 140.753 134.307L143.979 127.554C144.714 125.991 145.714 125.042 146.977 124.705L151.785 123.479C152.452 123.309 152.785 123.525 152.785 124.126C152.785 124.456 152.667 124.88 152.431 125.398L147.914 134.994C147.262 136.392 146.526 137.597 145.708 138.607C144.903 139.615 143.848 140.45 142.543 141.112C143.459 141.079 144.396 141.434 145.354 142.178C146.326 142.919 147.179 143.775 147.915 144.748L153.12 151.971C153.356 152.326 153.474 152.654 153.474 152.955Z" fill="#D02C2C"/>
<line x1="151.553" y1="193.605" x2="157.553" y2="171.605" stroke="#363636" stroke-width="3"/>
<line x1="158.5" y1="172" x2="158.5" y2="164" stroke="#363636"/>
<line x1="11.1877" y1="141.417" x2="21.2409" y2="127.417" stroke="#363636" stroke-width="2"/>
<rect x="19.7581" y="129.967" width="4.9956" height="10.4286" transform="rotate(40.8751 19.7581 129.967)" fill="#363636"/>
<line x1="290.833" y1="153.626" x2="278.78" y2="168.626" stroke="#363636" stroke-width="2"/>
<path d="M279.796 157.546L288.528 155.431L279.722 166.531L279.796 157.546Z" fill="#363636"/>
</g>
<defs>
<clipPath id="clip0_14_4">
<rect width="300" height="300" fill="white"/>
</clipPath>
</defs>
</svg>
