<?xml version="1.0" encoding="utf-8"?>
<!-- Generator: Adobe Illustrator 24.0.1, SVG Export Plug-In . SVG Version: 6.00 Build 0)  -->
<svg version="1.1" id="Layer_1" xmlns="http://www.w3.org/2000/svg" xmlns:xlink="http://www.w3.org/1999/xlink" x="0px" y="0px"
	 viewBox="0 0 202.33 276.92" style="enable-background:new 0 0 202.33 276.92;" xml:space="preserve">
<style type="text/css">
	.st0{fill:#6D6E70;}
	.st1{fill:#FFFFFF;}
</style>
<rect x="0" width="202.33" height="202.35"/>
<path class="st0" d="M74.79,37.88v37.32h-37.6C37.18,75.21,38.31,39.57,74.79,37.88z"/>
<rect x="82.36" y="37.88" class="st1" width="37.6" height="37.32"/>
<path class="st1" d="M126.7,37.88v37.32h38.45C165.15,75.21,164.03,37.88,126.7,37.88z"/>
<path class="st1" d="M126.7,82.5h38.45c0,0-0.28,36.48-38.45,37.6V82.5z"/>
<path class="st1" d="M119.97,120.11V82.5c0,0-35.36-0.28-37.6,37.6H119.97z"/>
<rect x="37.18" y="82.5" class="st0" width="37.6" height="37.6"/>
<rect x="37.18" y="127.97" class="st0" width="37.6" height="37.04"/>
<g>
	<path d="M28.13,229.83H0.07v3.23c0,0,4.7,0.14,4.63,4.56l0.14,39.29c0,0,11.44,0.77,12-13.4h10.59c0,0,15.57,0.63,18.07-14.98
		C45.5,248.53,48.76,230.18,28.13,229.83z M33.61,253.37c-0.21,3.7-5.54,3.68-5.54,3.68H16.56v-20.77c0,0,8.56,0,12.63,0.07
		s4.42,4.42,4.42,4.42S33.87,248.78,33.61,253.37z"/>
	<path d="M77.87,229.92l-27.5-0.08v3.18c0,0,4.68,0.28,4.68,4.58c0,4.3,0,38.07,0,38.07l23.95,0c0,0,16.93,0,16.93-16.56v-13.56
		C95.93,245.55,97.05,229.92,77.87,229.92z M84.01,240.92c0,0,0,18.52,0,23.54s-4.88,4.88-4.88,4.88H67.07v-32.97
		c0,0,7.58,0.02,12.4,0.02S84.01,240.92,84.01,240.92z"/>
	<path d="M105.75,276.42c0,0,11.6,0.19,11.6-13.19c0-13.38,0-22.64,0-22.64s-0.26-4.13,4.13-4.13c3.92,0,3.92,0,3.92,0
		s4.12-0.28,4.12,3.94c0,4.02,0,30.12,0,30.12s-0.39,5.15,5.89,5.15c6.28,0,6.08-5.24,6.08-5.24V240.5c0,0-0.22-3.98,3.98-3.98
		c3.69,0,3.69,0,3.69,0s4.58-0.32,4.58,4.07s0,23.57,0,23.57s0.09,12.25,11.69,12.25v-32.55c0,0,0-13.1-13.94-13.56h-7.67
		c0,0-6.52,0.16-8.51,3.46c0,0-2.15-3.46-8.65-3.46l-6.31-0.01c0,0-14.59-0.5-14.59,15.07
		C105.75,261.45,105.75,276.42,105.75,276.42z"/>
	<path d="M178.34,275.79h16.49l3.18,0.02c0,0,4.33,0.33,4.33-3.13c0-3.37-2.67-3.27-2.67-3.27h-4.63v-33.11h4.7
		c0,0,2.6,0.21,2.6-3.3c0-2.95-2.74-2.7-2.74-2.7h-21.07c0,0-2.92-0.32-2.92,2.72c0,3.2,2.64,3.18,2.64,3.18l4.72,0.09l0.07,33.11
		h-4.53c0,0-2.74-0.03-2.91,2.74C175.39,275.51,178.34,275.79,178.34,275.79z"/>
</g>
</svg>
